<svg id="Layer_1" data-name="Layer 1" xmlns="http://www.w3.org/2000/svg" viewBox="0 0 629.03 387.75"><defs><style>.cls-1{font-size:171.91px;font-family:Arial-BoldMT, Arial;font-weight:700;}.cls-1,.cls-3{fill:#fff;}.cls-2{fill:#e32526;}</style></defs><title>Artboard 13</title><text class="cls-1" transform="translate(282.83 323.03)">iwar</text><path class="cls-2" d="M267.79,133.67c-25.14-31.94-67.89-42.12-90-31.89-24.67,11.42-36.33,54.19-2.65,90.28-5.72-2.95-36.46-19.45-43-50.82-4-19-.85-52.1,29.78-65.95,25.28-11.44,55.49-3.52,73.44,7C266,100.34,267.66,130,267.79,133.67Z"/><path class="cls-2" d="M97.75,325.05c23.57,25.72,67.17,30.66,95.27,14.06,30.82-18.2,36.74-58.57,7.23-84.54,5.28,2.68,32.79,17.26,39.09,45.07,5.71,25.22-7.06,56.74-37.71,68.12-27.56,10.23-55.54-1-61.59-3.45C110.56,352.46,100,330.15,97.75,325.05Z"/><path class="cls-3" d="M251.25,319.64c3.89-9.29,10.28-28.91,3.31-51.89-7.56-24.9-26.62-40-36.39-47.58-36.56-28.25-63.65-20.42-100.57-45.41-13-8.83-30.18-23.69-43.67-49.2l18.53,8.65,3.82-7.75L75.18,113.1a247.89,247.89,0,0,0-1-27.35,27.82,27.82,0,0,1,1.44-12c1.14-3.29,2-5.6,4.32-6.59,4.16-1.76,10.35,1.81,13,3.3,8.58,4.85,20.74,11,39.2,19.31V74.44l-51-34.39C84.06,26.21,82,16.12,80,9.9,78.75,6.31,76.65.25,73,0,69.64-.22,66.59,4.8,65,7.54,61.7,13.05,57.55,22.91,59.37,38L0,61.72.18,75.35,51.82,62.72a10.89,10.89,0,0,1,9.49,11.2Q60.79,92,60.25,110.09L36.19,120.28c.11,2.53.23,5.07.35,7.6l21.25-4.3a73.32,73.32,0,0,0,0,26.7c5.08,27.16,24.47,44.82,33.46,52.79a143.67,143.67,0,0,0,36.62,23.36c18.71,8.39,24.74,6.6,47.86,14.44,18.84,6.38,37.62,12.74,52,25.72C234.12,272.31,250.07,288.71,251.25,319.64Z"/><g id="DuO00g"><path class="cls-3" d="M181.77,268c-3.59,3.47-3.35,11.74-.88,15.93,2.27,3.84,3.75,6.62,9,4.88,1.84-.6,3.94.84,4.44,4.2.86,5.77-.34,11.08-1.46,16.55-.45,2.24-3.25,4.78-.81,6.67s4-2.17,7.21-3.15c-8.71,14.38-20.66,21.83-36.37,21.79-16.56,0-29.22-7.76-36.82-22.67-7.35-14.43-5.77-28.47,3.18-42.73.15,8.56,3.89,14.19,10.07,18.4,3.21-.28,5.78,1,4.65,4.37-1.63,4.85.5,8.52,2.94,11.84a22.83,22.83,0,0,1,4.58,13.49,14.48,14.48,0,0,0,3.78,9.26c1.94-7.65,6-13,10-18.57,4.57-6.27,3-9.6-4.27-12.71-.74-.31-1.8-.41-2.11-1.09-4.22-9.16-12.38-6.45-19.59-6.58,2-2.53-.21-4.82-1-6.72-2-5.09-2.38-4.95.79-9.54l4.14,3.38c1.83-5.83,10.16-13.29,14.39-13a4.83,4.83,0,0,0-2-3.59c-2.75-2.36,1.11-3.14,1.09-4.82,5.36,3.73,11.78-3.71,17,1.61,1.24,1.26,5.69,2.14.65,4.39-.31.13-.44.64-.65,1,3.79.83,2.15,7.61,7.44,6.78Z"/><path class="cls-3" d="M181.19,267.38c1.17-3.38,3.12-4.47,6.3-2.22.9.63,1.32,2,2.94,1.64,1.18-.23,3-1,3.28,1.29.11.79.15,1.87-.84,1.92-1.44.06-3,1.46-4.4-.47-1.69-2.29-4.25-2-6.7-1.53A2.18,2.18,0,0,1,181.19,267.38Z"/><path class="cls-3" d="M151.85,256.66c-1.3,1.42-.8,4.81-3.89,4.11-.62-.14-1.59-1.21-1.49-1.64C147.1,256.29,149.79,257.34,151.85,256.66Z"/></g></svg>