<svg id="Layer_1" data-name="Layer 1" xmlns="http://www.w3.org/2000/svg" viewBox="0 0 303.99 303.99"><defs><style>.cls-1{fill:#e32526;}.cls-2{fill:#e32526;}</style></defs><title>Artboard 11 copy</title><path class="cls-1" d="M261.41,109.24c-20.54-26.1-55.48-34.42-73.53-26.07-20.16,9.34-29.68,44.29-2.16,73.78-4.68-2.41-29.8-15.9-35.15-41.53-3.24-15.53-.69-42.58,24.33-53.89,20.66-9.35,45.35-2.88,60,5.74C260,82,261.31,106.25,261.41,109.24Z"/><path class="cls-1" d="M122.46,265.63c19.26,21,54.89,25.06,77.86,11.49,25.18-14.87,30-47.86,5.9-69.09,4.31,2.2,26.8,14.11,31.94,36.84,4.67,20.61-5.76,46.37-30.82,55.67-22.51,8.35-45.38-.84-50.32-2.82C132.93,288,124.29,269.8,122.46,265.63Z"/><path class="cls-2" d="M247.9,261.22c3.18-7.6,8.4-23.63,2.7-42.42-6.17-20.34-21.75-32.7-29.74-38.87-29.87-23.09-52-16.7-82.18-37.11A109.24,109.24,0,0,1,103,102.61l15.14,7.07,3.13-6.34L104,92.43a201.59,201.59,0,0,0-.81-22.36,22.77,22.77,0,0,1,1.18-9.82c.93-2.69,1.62-4.58,3.53-5.38,3.4-1.44,8.46,1.47,10.6,2.69,7,4,17,9,32,15.78V60.83l-41.69-28.1c2.41-11.31.76-19.56-1-24.64-1-2.94-2.7-7.89-5.65-8.08C99.49-.18,97,3.93,95.66,6.17,93,10.66,89.6,18.72,91.1,31.08L42.57,50.43l.15,11.15,42.2-10.32a9.08,9.08,0,0,1,5.83,3.28,9,9,0,0,1,1.92,5.86Q92.25,75.19,91.81,90L72.15,98.29c.09,2.07.19,4.15.28,6.22L89.8,101a59.76,59.76,0,0,0,0,21.82C94,145,109.8,159.44,117.15,166A117.38,117.38,0,0,0,147.07,185c15.29,6.86,20.22,5.4,39.11,11.8,15.4,5.21,30.75,10.41,42.53,21C233.9,222.53,246.93,235.94,247.9,261.22Z"/><g id="DuO00g"><path class="cls-2" d="M191.12,219c-2.93,2.84-2.74,9.59-.72,13,1.85,3.14,3.06,5.41,7.35,4,1.51-.5,3.22.68,3.63,3.42.7,4.73-.28,9.07-1.19,13.53-.37,1.83-2.66,3.91-.66,5.45s3.23-1.77,5.89-2.57c-7.12,11.75-16.88,17.84-29.72,17.8-13.53,0-23.88-6.34-30.09-18.52-6-11.79-4.72-23.27,2.6-34.92.12,7,3.17,11.59,8.22,15,2.63-.23,4.73.84,3.81,3.57-1.33,4,.41,7,2.4,9.67a18.68,18.68,0,0,1,3.74,11,11.88,11.88,0,0,0,3.09,7.57c1.58-6.26,4.89-10.65,8.19-15.18,3.73-5.13,2.49-7.85-3.49-10.38-.61-.26-1.47-.34-1.73-.9-3.45-7.48-10.11-5.27-16-5.37,1.66-2.07-.17-4-.79-5.49-1.67-4.16-1.95-4.05.65-7.8l3.38,2.76c1.5-4.77,8.31-10.86,11.76-10.61a3.93,3.93,0,0,0-1.64-2.93c-2.24-1.93.91-2.56.89-3.94,4.39,3.05,9.64-3,13.88,1.31,1,1,4.65,1.75.53,3.59-.24.11-.35.53-.52.8,3.09.68,1.75,6.22,6.08,5.54Z"/><path class="cls-2" d="M190.65,218.5c.95-2.75,2.54-3.65,5.14-1.81.74.52,1.08,1.61,2.41,1.34,1-.19,2.42-.83,2.68,1.06.09.64.12,1.53-.69,1.56-1.18,0-2.43,1.19-3.6-.38-1.38-1.87-3.47-1.59-5.47-1.25A1.67,1.67,0,0,1,190.65,218.5Z"/><path class="cls-2" d="M166.67,209.74c-1.06,1.16-.65,3.93-3.18,3.37-.51-.12-1.3-1-1.22-1.35C162.79,209.45,165,210.3,166.67,209.74Z"/></g></svg>